<svg width="215" height="104" viewBox="0 0 215 104" fill="none" xmlns="http://www.w3.org/2000/svg">
<g clip-path="url(#clip0_943_646)">
<g opacity="0.3">
<path opacity="0.3" fill-rule="evenodd" clip-rule="evenodd" d="M76.2461 97.7694C76.2461 94.5855 79.3743 91.9815 83.1985 91.9815H152.954C156.778 91.9815 159.907 94.5855 159.907 97.7694C159.907 100.953 156.778 103.557 152.954 103.557H83.1985C79.3743 103.557 76.2461 100.953 76.2461 97.7694ZM193.047 75.7756C193.047 72.5917 196.175 69.9877 199.999 69.9877H207.878C211.703 69.9877 214.831 72.5917 214.831 75.7756C214.831 78.9589 211.703 81.5628 207.878 81.5628H199.999C196.175 81.5628 193.047 78.9589 193.047 75.7756ZM56.0838 97.7694C56.0838 94.5855 58.6909 91.9815 61.8774 91.9815C65.064 91.9815 67.6711 94.5855 67.6711 97.7694C67.6711 100.953 65.064 103.557 61.8774 103.557C58.6909 103.557 56.0838 100.953 56.0838 97.7694ZM19.6997 52.6243C19.6997 49.4404 22.828 46.8364 26.6521 46.8364H34.5313C38.3555 46.8364 41.4837 49.4404 41.4837 52.6243C41.4837 55.8076 38.3555 58.4115 34.5313 58.4115H26.6521C22.828 58.4115 19.6997 55.8076 19.6997 52.6243Z" fill="white"/>
<path opacity="0.3" fill-rule="evenodd" clip-rule="evenodd" d="M7.18533 12.109H62.8047C66.6289 12.109 69.7571 14.7135 69.7571 17.8968C69.7571 21.0802 66.6289 23.6847 62.8047 23.6847H59.7919C55.9683 23.6847 52.8389 26.2892 52.8389 29.4731C52.8389 32.6564 55.9683 35.2603 59.7919 35.2603H97.5662C101.39 35.2603 104.519 37.8649 104.519 41.0482C104.519 44.2315 101.39 46.836 97.5662 46.836H52.1441C48.3205 46.836 45.1917 49.4405 45.1917 52.6244C45.1917 55.8077 48.3205 58.4116 52.1441 58.4116H111.008C114.832 58.4116 117.96 61.0162 117.96 64.1995C117.96 67.3828 114.832 69.9873 111.008 69.9873H62.3408C58.5171 69.9873 55.3883 72.5918 55.3883 75.7757C55.3883 78.9584 58.5171 81.5629 62.3408 81.5629H180.532C184.356 81.5629 187.484 78.9584 187.484 75.7757C187.484 72.5918 184.356 69.9873 180.532 69.9873H136.268C132.445 69.9873 129.316 67.3828 129.316 64.1995C129.316 61.0162 132.445 58.4116 136.268 58.4116H152.954C156.778 58.4116 159.907 55.8077 159.907 52.6244C159.907 49.4405 156.778 46.836 152.954 46.836H153.186C149.362 46.836 146.234 44.2315 146.234 41.0482C146.234 37.8649 149.362 35.2603 153.186 35.2603H205.792C209.616 35.2603 212.745 32.6564 212.745 29.4731C212.745 26.2892 209.616 23.6847 205.792 23.6847H114.716C110.892 23.6847 107.763 21.0802 107.763 17.8968C107.763 14.7135 110.892 12.109 114.716 12.109H125.376C129.2 12.109 132.329 9.50507 132.329 6.3212C132.329 3.13789 129.2 0.533936 125.376 0.533936H7.18533C3.36116 0.533936 0.23291 3.13789 0.23291 6.3212C0.23291 9.50507 3.36116 12.109 7.18533 12.109Z" fill="white"/>
</g>
</g>
<defs>
<clipPath id="clip0_943_646">
<rect width="215" height="104" fill="white"/>
</clipPath>
</defs>
</svg>
