<svg width="399" height="119" viewBox="0 0 399 119" fill="none" xmlns="http://www.w3.org/2000/svg">
<path fill-rule="evenodd" clip-rule="evenodd" d="M95.52 119H120.264V88.757H197.247V99.754H221.075V88.757H268.731V77.759H271.481V23.688H0.207153V65.845V77.759V88.757H21.2858V77.759H45.1139V88.757H72.6081V108.002H95.52V119ZM296.225 77.759H320.053V23.688H296.225V77.759ZM395.203 89.673H320.053V23.688H395.203V89.673Z" fill="#161C23"/>
<path fill-rule="evenodd" clip-rule="evenodd" d="M389.705 109.835H338.383V58.5139H287.061V80.5089H235.739V58.5139H189.915V99.7539H143.175V50.2649H89.1045V69.5109H42.3648V39.2679H0.207153V0.775879H398.869V20.0219V39.2679V58.5139H389.705V109.835Z" fill="#161C23"/>
<path fill-rule="evenodd" clip-rule="evenodd" d="M99.749 115.125H123.241V86.4129H196.326V96.8539H218.947V86.4129H264.19V75.9719H266.8V24.6389H9.26321V64.6609V75.9719V86.4129H29.2745V75.9719H51.896V86.4129H77.9978V104.684H99.749V86.4129V115.125ZM290.292 75.9719H312.914V87.2829H384.258V24.6389H312.914H290.292V75.9719Z" fill="#090C0F"/>
<path fill-rule="evenodd" clip-rule="evenodd" d="M387.873 108H336.765V57.6473H285.658V79.2267H234.549V57.6473H188.917V98.1099H142.372V49.5554H88.5265V68.4376H41.9817V38.7652H0V1H397V11.7902V19.8831V38.7652V57.6473H387.873V108Z" fill="#090C0F"/>
</svg>
