<svg width="399" height="151" viewBox="0 0 399 151" fill="none" xmlns="http://www.w3.org/2000/svg">
<path fill-rule="evenodd" clip-rule="evenodd" d="M303.494 31.8801H278.749V62.1234H201.766V51.1259H177.938V62.1234H130.282V73.121H127.533V127.192H398.806V85.035V73.121V62.1234H377.728V73.121H353.9V62.1234H326.405V42.8777H303.494V31.8801ZM102.788 73.121H78.9603V127.192H102.788V73.121ZM3.81009 61.2069H78.9602V127.192H3.81009V61.2069Z" fill="#161C23"/>
<path fill-rule="evenodd" clip-rule="evenodd" d="M9.30871 41.0449H60.6307V92.367H111.953V70.372H163.275V92.367H209.098V51.1261H255.838V100.615H309.909V81.369H356.649V111.613H398.806V150.104H0.144257L0.144287 130.858L0.144257 111.613L0.144287 92.367H9.30871V41.0449Z" fill="#161C23"/>
<path fill-rule="evenodd" clip-rule="evenodd" d="M303.494 0.280029H278.749V30.5233H201.766V19.5258H177.938V30.5233H130.282V41.5209H127.533V95.592H398.806V53.435V41.5209V30.5233H377.728V41.5209H353.9V30.5233H326.405V11.2776H303.494V0.280029ZM102.788 41.5209H78.9603V95.592H102.788V41.5209ZM3.81009 29.6068H78.9602V95.592H3.81009V29.6068Z" fill="#161C23"/>
<path fill-rule="evenodd" clip-rule="evenodd" d="M9.30871 9.44482H60.6307V60.7668H111.953V38.7717H163.275V60.7668H209.098V19.526H255.838V69.015H309.909V49.7693H356.649V80.013H398.806V118.504H0.144257L0.144287 99.258L0.144257 80.013L0.144287 60.7668H9.30871V9.44482Z" fill="#161C23"/>
<path fill-rule="evenodd" clip-rule="evenodd" d="M308.03 57H284.414V85.5578H210.938V75.1729H188.195V85.5578H142.71V95.9427H140.086V147H399V107.192V95.9427V85.5578H378.882V95.9427H356.139V85.5578H329.898V67.3849H308.03V85.5578V57ZM116.468 95.9427H93.7263V84.6925H22V147H93.7263H116.468V95.9427Z" fill="#090C0F"/>
<path fill-rule="evenodd" clip-rule="evenodd" d="M9.17243 46H60.538V94.941H111.904V73.9667H163.269V94.941H209.131V55.6131H255.91V102.806H310.028V84.4534H356.808V113.294H399V150H0.000104561V139.512L0 131.646L0.000104561 113.294L0 94.941H9.17243V46Z" fill="#090C0F"/>
<path fill-rule="evenodd" clip-rule="evenodd" d="M308.03 27H284.414V55.5577H210.938V45.1731H188.195V55.5577H142.71V65.9423H140.086V117H399V77.192V65.9423V55.5577H378.882V65.9423H356.139V55.5577H329.898V37.3846H308.03V55.5577V27ZM116.468 65.9423H93.7263V54.6924H22V117H93.7263H116.468V65.9423Z" fill="#090C0F"/>
<path fill-rule="evenodd" clip-rule="evenodd" d="M9.12656 36H60.2345V84.4705H111.343V63.6974H162.451V84.4705H208.083V45.5209H254.628V92.2598H308.474V74.0836H355.019V102.647H397V139H0.000104037V128.613L0 120.823L0.000104037 102.647L0 84.4705H9.12656V36Z" fill="#090C0F"/>
</svg>
