<svg width="375" height="97" viewBox="0 0 375 97" fill="none" xmlns="http://www.w3.org/2000/svg">
<path d="M-1 58.1999L11.8667 53.3499C24.7333 48.4999 50.4667 38.7999 76.2 33.9499C101.933 29.0999 127.667 29.0999 153.4 38.7999C179.133 48.4999 204.867 67.8999 230.6 77.5999C256.333 87.2999 282.067 87.2999 307.8 80.8433C333.533 74.2655 359.267 61.5343 372.133 54.9565L385 48.4999V96.9999H372.133C359.267 96.9999 333.533 96.9999 307.8 96.9999C282.067 96.9999 256.333 96.9999 230.6 96.9999C204.867 96.9999 179.133 96.9999 153.4 96.9999C127.667 96.9999 101.933 96.9999 76.2 96.9999C50.4667 96.9999 24.7333 96.9999 11.8667 96.9999H-1V58.1999Z" fill="#6A70FF"/>
</svg>
