<svg width="403" height="69" viewBox="0 0 403 69" fill="none" xmlns="http://www.w3.org/2000/svg">
<path d="M0 28.5807L13.4333 23.5283C26.8667 18.4759 53.7333 8.3711 80.6 3.3187C107.467 -1.73371 134.333 -1.73371 161.2 8.3711C188.067 18.4759 214.933 38.6856 241.8 48.7904C268.667 58.8952 295.533 58.8952 322.4 52.1692C349.267 45.3168 376.133 32.0543 389.567 25.2019L403 18.4759V69H389.567C376.133 69 349.267 69 322.4 69C295.533 69 268.667 69 241.8 69C214.933 69 188.067 69 161.2 69C134.333 69 107.467 69 80.6 69C53.7333 69 26.8667 69 13.4333 69H0V28.5807Z" fill="#6A70FF"/>
</svg>
